<svg width="463" height="463" viewBox="0 0 463 463" fill="none" xmlns="http://www.w3.org/2000/svg">
<path d="M231.481 462.963C359.325 462.963 462.963 359.325 462.963 231.481C462.963 103.638 359.325 0 231.481 0C103.638 0 0 103.638 0 231.481C0 359.325 103.638 462.963 231.481 462.963Z" fill="#69C6C0"/>
<path d="M60 304V301.006L62.0328 300.376C64.1178 299.851 65.577 298.958 66.4111 297.698C67.2452 296.542 67.662 294.862 67.662 292.656C67.662 288.349 67.662 284.253 67.662 280.367C67.7661 276.585 67.8184 272.909 67.8184 269.338V226.01C67.8184 222.754 67.8184 219.97 67.8184 217.659C67.8184 215.243 67.7661 212.565 67.662 209.624C67.662 207.418 67.297 205.738 66.5675 204.582C65.8379 203.322 64.4306 202.481 62.3455 202.061L60 201.588V198.752L85.1753 189.614L87.0517 191.19L88.459 197.019C95.6519 192.082 103.783 189.614 112.852 189.614C121.713 189.614 128.802 192.975 134.118 199.698C139.539 206.42 142.25 216.346 142.25 229.476C142.25 242.185 139.279 252.111 133.337 259.254C127.499 266.291 119.524 269.81 109.412 269.81C105.347 269.81 101.49 269.442 97.8411 268.707C94.2969 267.972 91.1172 266.869 88.3026 265.399V270.125C88.3026 273.277 88.3026 276.69 88.3026 280.367C88.4067 284.043 88.459 288.034 88.459 292.341C88.459 296.542 90.2831 299.168 93.9319 300.219L96.9029 301.006V304H60ZM102.063 263.508C107.588 263.508 111.914 261.04 115.042 256.103C118.273 251.061 119.889 242.395 119.889 230.106C119.889 217.922 118.378 209.414 115.354 204.582C112.331 199.645 108.057 197.177 102.532 197.177C100.552 197.177 98.4143 197.492 96.121 198.122C93.8278 198.752 91.3777 199.803 88.7717 201.273V260.83C92.9414 262.615 97.372 263.508 102.063 263.508ZM189.339 189.614C195.907 189.614 201.536 190.979 206.227 193.711C210.918 196.442 214.515 200.223 217.017 205.055C219.623 209.781 220.926 215.243 220.926 221.44C220.926 222.806 220.874 224.119 220.769 225.379C220.665 226.535 220.457 227.638 220.144 228.688H173.077C173.182 239.507 175.162 247.28 179.019 252.006C182.981 256.733 188.714 259.096 196.22 259.096C201.432 259.096 205.654 258.256 208.885 256.576C212.117 254.79 215.088 252.322 217.798 249.17L220.3 251.534C217.173 257.311 212.899 261.828 207.478 265.084C202.162 268.235 195.803 269.81 188.401 269.81C181 269.81 174.484 268.235 168.855 265.084C163.226 261.932 158.796 257.416 155.564 251.534C152.437 245.547 150.873 238.404 150.873 230.106C150.873 221.493 152.697 214.193 156.346 208.206C160.099 202.219 164.894 197.65 170.732 194.498C176.674 191.242 182.876 189.614 189.339 189.614ZM188.558 194.183C185.535 194.183 182.876 195.076 180.583 196.862C178.394 198.542 176.622 201.588 175.266 206C174.015 210.307 173.286 216.399 173.077 224.277H201.067C202.214 213.668 201.797 206 199.816 201.273C197.836 196.547 194.083 194.183 188.558 194.183ZM258.287 269.81C251.824 269.81 246.716 268.235 242.963 265.084C239.314 261.828 237.49 256.576 237.49 249.328C237.49 246.807 237.49 244.444 237.49 242.238C237.594 239.927 237.646 237.249 237.646 234.203V196.862H226.544V193.395L230.766 192.765C233.789 192.24 236.343 191.295 238.428 189.929C240.617 188.564 242.598 186.673 244.37 184.257L254.534 170.077H259.225L258.756 191.977H276.582V196.862H258.6V250.588C258.6 254.37 259.382 257.206 260.945 259.096C262.613 260.987 264.646 261.932 267.044 261.932C269.128 261.932 271.005 261.46 272.673 260.514C274.341 259.464 276.008 258.098 277.677 256.418L279.709 258.781C277.729 262.248 274.966 264.979 271.422 266.974C267.877 268.865 263.499 269.81 258.287 269.81ZM307.605 269.81C301.663 269.81 296.607 268.13 292.437 264.768C288.372 261.302 286.339 256.365 286.339 249.958C286.339 244.916 288.737 240.295 293.532 236.093C298.432 231.787 306.094 228.635 316.518 226.64C318.29 226.22 320.323 225.852 322.616 225.537C325.014 225.117 327.36 224.697 329.653 224.277V213.09C329.653 205.947 328.767 201.011 326.995 198.28C325.222 195.549 322.408 194.183 318.551 194.183H318.082C315.684 194.183 313.756 194.971 312.296 196.547C310.941 198.017 310.055 200.486 309.638 203.952L309.169 206C308.856 210.201 307.762 213.3 305.885 215.296C304.009 217.187 301.663 218.132 298.849 218.132C296.243 218.132 294.053 217.344 292.281 215.768C290.613 214.088 289.779 211.934 289.779 209.309C289.779 205.002 291.239 201.378 294.157 198.437C297.076 195.496 300.934 193.291 305.729 191.82C310.628 190.349 315.893 189.614 321.522 189.614C330.8 189.614 337.888 191.873 342.788 196.389C347.688 200.906 350.137 208.258 350.137 218.447V253.582C350.137 258.098 352.274 260.357 356.548 260.357H360.145L361.708 262.09C359.832 264.506 357.747 266.344 355.454 267.604C353.16 268.97 350.033 269.653 346.072 269.653C341.589 269.653 337.993 268.603 335.282 266.502C332.676 264.296 330.956 261.407 330.122 257.836C326.786 261.407 323.502 264.296 320.271 266.502C317.039 268.707 312.818 269.81 307.605 269.81ZM316.674 259.727C318.76 259.727 320.74 259.254 322.616 258.309C324.493 257.363 326.838 255.788 329.653 253.582V228.373C326.943 228.793 324.18 229.318 321.366 229.949C316.883 230.999 313.234 232.942 310.42 235.778C307.709 238.614 306.354 242.448 306.354 247.28C306.354 251.481 307.292 254.632 309.169 256.733C311.149 258.729 313.651 259.727 316.674 259.727ZM365.566 267.604V264.611L367.912 263.981C371.352 262.825 373.072 260.199 373.072 256.103C373.072 252.532 373.072 248.96 373.072 245.389C373.176 241.713 373.228 238.089 373.228 234.518V174.646C373.228 172.441 372.864 170.812 372.134 169.762C371.404 168.607 369.997 167.766 367.912 167.241L365.566 166.611V163.617L392.931 157L394.963 158.418L394.338 180.633V256.103C394.442 258.204 394.859 259.937 395.589 261.302C396.423 262.563 397.83 263.455 399.811 263.981L402 264.611V267.604H365.566Z" fill="white"/>
</svg>
